<svg width="52" height="52" viewBox="0 0 52 52" fill="none" xmlns="http://www.w3.org/2000/svg">
<mask id="mask0_30_37" style="mask-type:alpha" maskUnits="userSpaceOnUse" x="0" y="0" width="52" height="52">
<rect width="52" height="52" fill="#D9D9D9"/>
</mask>
<g mask="url(#mask0_30_37)">
<path d="M19.4999 34.6666H23.8333V17.3333H19.4999V34.6666ZM28.1666 34.6666H32.4999V17.3333H28.1666V34.6666ZM25.9999 47.6666C23.0027 47.6666 20.186 47.0975 17.5499 45.9593C14.9138 44.8225 12.6208 43.2791 10.6708 41.3291C8.72075 39.3791 7.17736 37.0861 6.04059 34.45C4.90236 31.8139 4.33325 28.9972 4.33325 26C4.33325 23.0028 4.90236 20.1861 6.04059 17.55C7.17736 14.9139 8.72075 12.6208 10.6708 10.6708C12.6208 8.72081 14.9138 7.1767 17.5499 6.03848C20.186 4.9017 23.0027 4.33331 25.9999 4.33331C28.9971 4.33331 31.8138 4.9017 34.4499 6.03848C37.086 7.1767 39.3791 8.72081 41.3291 10.6708C43.2791 12.6208 44.8225 14.9139 45.9592 17.55C47.0975 20.1861 47.6666 23.0028 47.6666 26C47.6666 28.9972 47.0975 31.8139 45.9592 34.45C44.8225 37.0861 43.2791 39.3791 41.3291 41.3291C39.3791 43.2791 37.086 44.8225 34.4499 45.9593C31.8138 47.0975 28.9971 47.6666 25.9999 47.6666ZM25.9999 43.3333C30.8388 43.3333 34.9374 41.6541 38.2957 38.2958C41.6541 34.9375 43.3332 30.8389 43.3332 26C43.3332 21.1611 41.6541 17.0625 38.2957 13.7041C34.9374 10.3458 30.8388 8.66665 25.9999 8.66665C21.161 8.66665 17.0624 10.3458 13.7041 13.7041C10.3458 17.0625 8.66658 21.1611 8.66658 26C8.66658 30.8389 10.3458 34.9375 13.7041 38.2958C17.0624 41.6541 21.161 43.3333 25.9999 43.3333Z" fill="#CE5BE2"/>
</g>
</svg>
