<svg width="52" height="52" viewBox="0 0 52 52" fill="none" xmlns="http://www.w3.org/2000/svg">
<mask id="mask0_30_43" style="mask-type:alpha" maskUnits="userSpaceOnUse" x="0" y="0" width="52" height="52">
<rect width="52" height="52" fill="#D9D9D9"/>
</mask>
<g mask="url(#mask0_30_43)">
<path d="M20.5833 35.75L35.7499 26L20.5833 16.25V35.75ZM25.9999 47.6667C23.0027 47.6667 20.186 47.0976 17.5499 45.9593C14.9138 44.8226 12.6208 43.2792 10.6708 41.3292C8.72075 39.3792 7.17736 37.0861 6.04059 34.45C4.90236 31.8139 4.33325 28.9972 4.33325 26C4.33325 23.0028 4.90236 20.1861 6.04059 17.55C7.17736 14.9139 8.72075 12.6208 10.6708 10.6708C12.6208 8.72084 14.9138 7.17673 17.5499 6.03851C20.186 4.90173 23.0027 4.33334 25.9999 4.33334C28.9971 4.33334 31.8138 4.90173 34.4499 6.03851C37.086 7.17673 39.3791 8.72084 41.3291 10.6708C43.2791 12.6208 44.8225 14.9139 45.9592 17.55C47.0975 20.1861 47.6666 23.0028 47.6666 26C47.6666 28.9972 47.0975 31.8139 45.9592 34.45C44.8225 37.0861 43.2791 39.3792 41.3291 41.3292C39.3791 43.2792 37.086 44.8226 34.4499 45.9593C31.8138 47.0976 28.9971 47.6667 25.9999 47.6667ZM25.9999 43.3333C30.8388 43.3333 34.9374 41.6542 38.2957 38.2958C41.6541 34.9375 43.3332 30.8389 43.3332 26C43.3332 21.1611 41.6541 17.0625 38.2957 13.7042C34.9374 10.3458 30.8388 8.66668 25.9999 8.66668C21.161 8.66668 17.0624 10.3458 13.7041 13.7042C10.3458 17.0625 8.66658 21.1611 8.66658 26C8.66658 30.8389 10.3458 34.9375 13.7041 38.2958C17.0624 41.6542 21.161 43.3333 25.9999 43.3333Z" fill="#CE5BE2"/>
</g>
</svg>
