<svg width="52" height="52" viewBox="0 0 52 52" fill="none" xmlns="http://www.w3.org/2000/svg">
<mask id="mask0_31_52" style="mask-type:alpha" maskUnits="userSpaceOnUse" x="0" y="0" width="52" height="52">
<rect width="52" height="52" fill="#D9D9D9"/>
</mask>
<g mask="url(#mask0_31_52)">
<path d="M42.8999 48.9666L36.3457 42.4125C35.4429 42.9903 34.486 43.4872 33.4749 43.9032C32.4638 44.3177 31.4165 44.6514 30.3332 44.9042V40.4625C30.8388 40.2819 31.3356 40.1014 31.8239 39.9208C32.3106 39.7403 32.7707 39.5236 33.204 39.2708L25.9999 32.0666V43.3333L15.1665 32.5H6.49987V19.5H13.4332L3.0332 9.09998L6.06654 6.06665L45.9332 45.9333L42.8999 48.9666ZM42.4665 36.4L39.3249 33.2583C39.9388 32.1389 40.3995 30.9653 40.7072 29.7375C41.0134 28.5097 41.1665 27.2458 41.1665 25.9458C41.1665 22.5514 40.1735 19.518 38.1874 16.8458C36.2013 14.1736 33.5832 12.368 30.3332 11.4292V6.98748C34.811 7.99859 38.4582 10.2642 41.2749 13.7843C44.0915 17.3059 45.4999 21.3597 45.4999 25.9458C45.4999 27.8597 45.2384 29.7014 44.7155 31.4708C44.1912 33.2403 43.4415 34.8833 42.4665 36.4ZM35.2082 29.1416L30.3332 24.2666V17.225C32.0304 18.0194 33.3579 19.2111 34.3155 20.8C35.2718 22.3889 35.7499 24.1222 35.7499 26C35.7499 26.5416 35.7051 27.0746 35.6155 27.599C35.5245 28.1219 35.3888 28.6361 35.2082 29.1416ZM25.9999 19.9333L20.3665 14.3L25.9999 8.66665V19.9333ZM21.6665 32.825V27.7333L17.7665 23.8333H10.8332V28.1666H17.0082L21.6665 32.825Z" fill="#CE5BE2"/>
</g>
</svg>
