<svg width="52" height="52" viewBox="0 0 52 52" fill="none" xmlns="http://www.w3.org/2000/svg">
<mask id="mask0_30_13" style="mask-type:alpha" maskUnits="userSpaceOnUse" x="0" y="0" width="52" height="52">
<rect width="52" height="52" fill="#D9D9D9"/>
</mask>
<g mask="url(#mask0_30_13)">
<path d="M30.3333 44.9042V40.4625C33.5833 39.5236 36.2014 37.7181 38.1875 35.0458C40.1736 32.3736 41.1667 29.3403 41.1667 25.9459C41.1667 22.5514 40.1736 19.5181 38.1875 16.8459C36.2014 14.1736 33.5833 12.3681 30.3333 11.4292V6.98752C34.8111 7.99863 38.4583 10.2642 41.275 13.7844C44.0917 17.3059 45.5 21.3597 45.5 25.9459C45.5 30.532 44.0917 34.5851 41.275 38.1052C38.4583 41.6267 34.8111 43.8931 30.3333 44.9042ZM6.5 32.5V19.5H15.1667L26 8.66669V43.3333L15.1667 32.5H6.5ZM30.3333 34.6667V17.225C32.0306 18.0195 33.358 19.2111 34.3157 20.8C35.2719 22.3889 35.75 24.1222 35.75 26C35.75 27.8417 35.2719 29.5476 34.3157 31.1177C33.358 32.6892 32.0306 33.8722 30.3333 34.6667ZM21.6667 19.175L17.0083 23.8334H10.8333V28.1667H17.0083L21.6667 32.825V19.175Z" fill="#CE5BE2"/>
</g>
</svg>
